<svg width="22" height="22" viewBox="0 0 22 22" fill="none" xmlns="http://www.w3.org/2000/svg">
<path d="M10.3125 7.20496H1.83331V14.8408C1.83331 14.8958 1.83331 14.9508 1.84248 14.9966H10.3125V7.20496Z" fill="#EFEEE0" fill-opacity="0.25"/>
<path d="M7.04919 5.83004H10.3125V1.83337H7.07669V5.72004C7.07669 5.75671 7.05836 5.79337 7.04919 5.83004Z" fill="#EFEEE0" fill-opacity="0.25"/>
<path d="M5.70168 5.71998V1.97998C3.66668 2.40165 2.33751 3.75831 1.95251 5.82998H5.72001C5.71085 5.79331 5.70168 5.75665 5.70168 5.71998Z" fill="#EFEEE0" fill-opacity="0.25"/>
<path d="M14.8683 1.83337H11.6875V5.83004H14.8683V1.83337Z" fill="#EFEEE0" fill-opacity="0.25"/>
<path d="M16.2342 5.82999H20.0475C19.6625 3.73999 18.315 2.37416 16.2434 1.97083V5.80249C16.2434 5.81166 16.2342 5.82083 16.2342 5.82999Z" fill="#EFEEE0" fill-opacity="0.25"/>
<path d="M16.2433 20.0292C18.2508 19.635 19.5708 18.3517 20.0017 16.3717H16.2433V20.0292Z" fill="#EFEEE0" fill-opacity="0.25"/>
<path d="M14.8683 16.3717H11.6875V20.1667H14.8683V16.3717Z" fill="#EFEEE0" fill-opacity="0.25"/>
<path d="M11.6875 14.9966H20.1575C20.1667 14.9508 20.1667 14.8958 20.1667 14.8408V7.20496H11.6875V14.9966Z" fill="#EFEEE0" fill-opacity="0.25"/>
<path d="M10.3125 16.3717H7.07666V20.1667H10.3125V16.3717Z" fill="#EFEEE0" fill-opacity="0.25"/>
<path d="M1.99835 16.3717C2.42919 18.3334 3.73085 19.6167 5.70169 20.02V16.3717H1.99835Z" fill="#EFEEE0" fill-opacity="0.25"/>
</svg>
